<?xml version="1.0" encoding="utf-8"?>
<!-- Generator: Adobe Illustrator 25.0.0, SVG Export Plug-In . SVG Version: 6.00 Build 0)  -->
<svg version="1.1" id="Capa_1" xmlns="http://www.w3.org/2000/svg" xmlns:xlink="http://www.w3.org/1999/xlink" x="0px" y="0px"
	 viewBox="0 0 23 22" style="enable-background:new 0 0 23 22;" xml:space="preserve">
<style type="text/css">
	.st0{fill-rule:evenodd;clip-rule:evenodd;fill:#0E1923;}
	.st1{fill:#0E1923;}
</style>
<path class="st0" d="M7.8,0h8.3C19.9,0,23,3.1,23,6.9v8.2c0,3.8-3.1,6.9-6.9,6.9H7.8C4,22,1,18.9,1,15.1V6.9C1,3.1,4,0,7.8,0z
	 M16.1,19.9c2.7,0,4.8-2.2,4.8-4.8V6.9c0-2.7-2.2-4.8-4.8-4.8H7.8C5.2,2.1,3,4.2,3,6.9v8.2c0,2.7,2.2,4.8,4.8,4.8H16.1z"/>
<path class="st0" d="M6.5,11c0-3,2.5-5.5,5.5-5.5c3,0,5.5,2.5,5.5,5.5c0,3-2.5,5.5-5.5,5.5C8.9,16.5,6.5,14,6.5,11z M8.5,11
	c0,1.9,1.5,3.4,3.4,3.4c1.9,0,3.4-1.5,3.4-3.4c0-1.9-1.5-3.4-3.4-3.4C10.1,7.6,8.5,9.1,8.5,11z"/>
<circle class="st1" cx="17.9" cy="5.1" r="0.7"/>
</svg>
